PathFileType	4	(X/Y/Z)	C:/Users/opensim2020/Desktop/walking_exp_matlab/subject06_walking18_straight_02.trc	
DataRate	CameraRate	NumFrames	NumMarkers	Units	OrigDataRate	OrigDataStartFrame	OrigNumFrames	
100.00	100.00	6	47	mm	100.00	2455	326	
Frame#	Time	LFHD			RFHD			LBHD			RBHD			C7			T10			CLAV			STRN			RBAK			LSHO			LUPA			LELB			LFRM			LWRA			LWRB			LFIN			RSHO			RUPA			RELB			RFRM			RWRA			RWRB			RFIN			LASI			RASI			LPSI			RPSI			LTHI			LKNE			LTIB			LANK			LHEE			LTOE			RTHI			RKNE			RTIB			RANK			RHEE			RTOE			*39			*40			*41			*42			*43			*44			*45			*46			
		X1	Y1	Z1	X2	Y2	Z2	X3	Y3	Z3	X4	Y4	Z4	X5	Y5	Z5	X6	Y6	Z6	X7	Y7	Z7	X8	Y8	Z8	X9	Y9	Z9	X10	Y10	Z10	X11	Y11	Z11	X12	Y12	Z12	X13	Y13	Z13	X14	Y14	Z14	X15	Y15	Z15	X16	Y16	Z16	X17	Y17	Z17	X18	Y18	Z18	X19	Y19	Z19	X20	Y20	Z20	X21	Y21	Z21	X22	Y22	Z22	X23	Y23	Z23	X24	Y24	Z24	X25	Y25	Z25	X26	Y26	Z26	X27	Y27	Z27	X28	Y28	Z28	X29	Y29	Z29	X30	Y30	Z30	X31	Y31	Z31	X32	Y32	Z32	X33	Y33	Z33	X34	Y34	Z34	X35	Y35	Z35	X36	Y36	Z36	X37	Y37	Z37	X38	Y38	Z38	X39	Y39	Z39	X40	Y40	Z40	X41	Y41	Z41	X42	Y42	Z42	X43	Y43	Z43	X44	Y44	Z44	X45	Y45	Z45	X46	Y46	Z46	X47	Y47	Z47	

204	2.030	-958.06610	32.25519	1668.33606	-1089.48083	26.17716	1656.47302	-962.71802	161.95308	1605.69873	-1091.78687	153.95412	1599.22778	-1014.41956	153.69580	1450.65063	-1025.82825	182.06590	1122.56567	-1016.88733	40.87675	1377.61816	-1010.08728	-1.99136	1201.06812	-1094.83557	221.40457	1278.57581	-854.36304	92.18471	1406.12720	-780.20905	74.51530	1204.59863	-765.80872	61.42934	1092.27185	-749.32062	-12.11778	960.54950	-794.07471	-111.90820	882.17157	-762.48962	-57.03072	850.33289	-764.17627	-126.87775	792.14832	-1177.67969	87.97463	1409.05493	-1267.06567	131.38786	1212.96191	-1277.70093	128.12695	1090.32739	-1293.04736	114.25433	970.64850	-1256.30847	57.98573	831.11890	-1300.54724	109.09190	833.12244	-1299.09241	72.87337	756.34204	-909.03394	14.30344	955.98199	-1129.43945	-1.74141	968.99445	-946.73004	168.41994	990.61609	-1114.60339	152.27141	996.63470	-866.51752	127.33282	645.81903	-889.74170	158.36520	484.35703	-897.64056	314.48224	277.35214	-941.05670	399.20792	125.88721	-986.14209	440.40744	131.74513	-948.87585	284.84546	33.70357	-1192.36096	20.01090	638.83881	-1163.04956	-2.52077	516.99323	-1166.63293	-1.17264	251.95784	-1121.19019	-21.04820	65.78906	-1077.34338	16.27053	39.79944	-1101.92383	-178.57898	37.12767	-1021.77112	131.99069	1699.86987																					 
205	2.040	-960.05341	26.08458	1669.27588	-1091.43652	19.83023	1656.94641	-964.65863	155.80829	1606.68640	-1093.79041	147.55473	1599.73804	-1015.78229	147.35849	1451.30420	-1027.30615	175.71429	1123.34094	-1018.21289	34.72918	1378.37085	-1011.19641	-8.42276	1201.93933	-1096.24487	214.88770	1279.07043	-855.91083	86.00759	1407.15881	-781.55634	67.69134	1205.90356	-767.03033	55.10452	1093.57483	-750.31622	-17.76926	961.47064	-794.99921	-116.94231	882.29077	-762.95941	-62.04995	850.99359	-764.79291	-131.58670	792.35748	-1178.93115	81.55869	1409.63318	-1268.65930	124.13983	1213.47424	-1278.85278	120.24197	1090.75110	-1293.98022	105.91317	971.09698	-1256.88513	49.27842	831.82166	-1301.41016	100.46493	833.62152	-1299.72900	63.78345	756.92944	-909.86926	7.78738	957.05121	-1130.14502	-8.71212	969.65741	-948.25616	161.79128	991.11456	-1115.95300	145.25890	997.24231	-866.90497	118.92638	646.29675	-889.65509	148.14813	484.36154	-897.80414	307.82684	280.08780	-941.21301	395.11691	130.26189	-986.59082	435.72635	137.22609	-949.06586	284.15622	33.81664	-1192.60767	14.59700	639.02539	-1163.23999	-7.21822	517.07086	-1166.53186	-3.94205	251.94890	-1120.63452	-21.87339	65.93431	-1077.14392	15.97892	40.08229	-1101.28979	-179.03764	36.45758	-1024.06250	125.73795	1700.70386																					 
206	2.050	-961.95764	20.03449	1670.10828	-1093.30737	13.53585	1657.37573	-966.42377	149.77184	1607.55957	-1096.05774	141.78065	1600.34009	-1017.45428	141.45276	1451.90271	-1028.58313	169.13579	1123.81042	-1019.46979	28.45360	1379.13892	-1012.31293	-14.80448	1202.71094	-1097.79675	208.54123	1279.49170	-857.42291	79.97171	1408.05640	-782.81049	61.13589	1207.02307	-768.17615	48.87738	1094.70459	-751.08527	-23.36935	962.15552	-796.05371	-121.98278	882.37451	-763.36792	-67.38669	851.39417	-765.60834	-136.00609	792.38464	-1180.32300	75.30167	1410.26880	-1269.82239	116.85564	1213.79053	-1279.94604	112.34213	1091.10901	-1294.92407	97.53250	971.48853	-1257.47278	40.53162	832.46741	-1302.13013	91.40698	833.99945	-1300.32751	54.64617	757.50623	-910.74615	1.35190	958.05090	-1131.00159	-15.50751	970.18079	-949.69708	155.27002	991.58777	-1117.27649	138.26004	997.71112	-867.20398	110.33816	646.55597	-889.42920	137.57854	484.21967	-898.13495	300.54291	282.85645	-941.28119	390.55969	134.69942	-987.05280	430.37253	142.85422	-949.19861	283.30887	33.93223	-1192.49573	8.99696	639.43402	-1163.51660	-12.10235	517.19208	-1166.20679	-6.71817	252.08446	-1120.06445	-22.73343	66.04022	-1076.99194	15.69953	40.33588	-1100.80933	-179.41895	36.07652	-1026.19617	119.45831	1701.28650																					 
207	2.060	-963.76886	13.87950	1670.80933	-1095.08923	7.43727	1657.72742	-968.21619	143.77818	1608.44165	-1097.44800	135.30667	1600.76208	-1018.99902	135.35561	1452.42786	-1029.89233	162.62456	1124.19421	-1020.83551	22.40076	1379.72180	-1013.54474	-21.21419	1203.40894	-1099.25073	202.19650	1279.73425	-858.89905	73.98179	1408.86230	-784.11505	54.79538	1207.98035	-769.31854	42.83771	1095.67871	-751.89685	-28.89518	962.89185	-797.06683	-127.05223	882.47223	-763.43201	-72.12091	852.10236	-765.96716	-140.94728	792.66144	-1181.65979	69.12370	1410.78284	-1271.21753	109.84548	1214.09680	-1281.09631	104.61852	1091.38367	-1295.83704	89.14527	971.83502	-1258.02917	31.77826	833.06805	-1302.87366	82.41135	834.40430	-1300.94788	45.26756	758.08990	-911.71808	-5.08269	958.97565	-1131.89392	-22.28584	970.62091	-951.08405	148.77208	991.88348	-1118.58875	131.48604	998.15448	-867.42487	101.40909	646.69885	-889.18243	126.52942	483.95932	-898.32916	292.76242	285.67065	-941.13287	385.56342	139.25793	-987.18463	424.76602	148.73750	-949.40765	282.49265	33.94496	-1192.93555	2.48048	639.97504	-1163.84741	-17.11905	517.35590	-1166.21313	-9.94064	252.13429	-1119.66980	-23.51262	66.20184	-1076.84265	15.36029	40.56229	-1100.50952	-180.12241	35.68970	-1028.18835	113.30718	1701.94861																					 
208	2.070	-965.59973	7.88135	1671.35754	-1096.83447	1.31724	1658.03870	-969.90015	137.72360	1609.06519	-1098.97961	129.21806	1601.11340	-1020.40271	129.35356	1452.82202	-1031.21838	156.15741	1124.52759	-1022.21448	16.50597	1380.21179	-1014.71875	-27.43034	1203.95837	-1100.84790	195.90622	1279.96326	-860.29254	68.12226	1409.51880	-785.34741	48.81230	1208.72510	-770.44537	36.99588	1096.52087	-752.76788	-34.02373	963.60809	-798.06683	-132.04437	882.51257	-763.70331	-76.98875	852.37482	-766.42169	-145.60728	792.74713	-1183.00049	63.04454	1411.14893	-1272.47046	102.95289	1214.28906	-1282.26318	96.99839	1091.58740	-1296.77417	80.82030	972.11029	-1258.61023	23.08715	833.59741	-1303.64197	73.39545	834.74719	-1301.46741	35.82225	758.61316	-912.70685	-11.34059	959.76611	-1132.75098	-29.09385	971.09717	-952.19189	142.52306	992.20416	-1119.71106	124.89556	998.57916	-867.50952	92.21015	646.68054	-888.91754	115.11517	483.56219	-898.59412	284.45535	288.44318	-940.74908	380.02744	143.90128	-987.05548	418.56271	154.72978	-949.53430	281.54135	34.08498	-1192.99329	-3.69851	640.35681	-1164.29358	-22.16733	517.48462	-1166.48523	-13.26268	252.04504	-1119.42334	-24.23601	66.21360	-1076.79492	14.99457	40.71950	-1100.40344	-180.62201	35.33512	-1030.01233	107.21614	1702.45032																					 
209	2.080	-967.18646	2.01111	1671.90613	-1098.44641	-4.58878	1658.37756	-971.51086	131.88107	1609.64978	-1100.64795	123.30559	1601.50500	-1021.97485	123.55071	1453.29370	-1032.55762	149.97293	1124.80273	-1023.48938	10.43808	1380.67786	-1015.93274	-33.57097	1204.44153	-1102.32373	189.79443	1280.12695	-861.66138	62.34848	1410.05286	-786.56982	43.10939	1209.30994	-771.32458	31.24824	1097.28967	-753.63727	-39.04790	964.06091	-798.90289	-136.49170	882.20538	-764.04517	-81.87226	852.61273	-766.96906	-150.05847	792.79126	-1184.31543	56.99214	1411.45752	-1273.69104	95.92848	1214.35339	-1283.41260	89.38552	1091.72668	-1297.69629	72.55070	972.30280	-1259.16296	14.07728	834.21851	-1304.45740	64.34319	835.03625	-1301.98828	26.16014	759.08240	-913.72241	-17.49953	960.48688	-1133.64307	-35.69243	971.48492	-953.28809	136.26736	992.34064	-1120.79224	118.40001	998.96967	-867.69904	82.86674	646.53931	-888.72241	103.28219	483.08664	-898.40015	275.97278	291.40829	-940.17767	374.03793	148.73105	-986.73541	411.75464	160.97147	-949.59967	280.59830	34.39799	-1192.96985	-9.44401	640.70648	-1164.78003	-27.11388	517.55945	-1166.72241	-15.76507	252.04753	-1119.35046	-24.84950	66.19190	-1076.85291	14.76504	40.85951	-1100.26636	-180.91814	35.10640	-1031.73071	101.24865	1702.88489																					 
